<svg xmlns="http://www.w3.org/2000/svg" width="1080" height="1080">
  <linearGradient id="a" gradientUnits="userSpaceOnUse" x1="109" y1="623" x2="1102.5" y2="624.8"><stop offset=".1" stop-color="#00b8e9"/><stop offset=".5" stop-color="#2d1385"/></linearGradient><path fill="url(#a)" d="M104 1008h882l-74-120H325l220-396 105 188 147 2-251-444h-13z"/>
  <linearGradient id="b" gradientUnits="userSpaceOnUse" x1="109" y1="623.4" x2="1102.5" y2="625.2"><stop offset=".1" stop-color="#00b8e9"/><stop offset=".5" stop-color="#2d1385"/></linearGradient><path fill="url(#b)" d="M609 679H470l63-110h12z"/>
  <linearGradient id="c" gradientUnits="userSpaceOnUse" x1="109.3" y1="460.1" x2="1102.8" y2="461.9"><stop offset=".1" stop-color="#00b8e9"/><stop offset=".5" stop-color="#2d1385"/></linearGradient><path fill="url(#c)" d="M388 847h691L641 75h-12l-70 122 300 522-405 1z"/>
  <linearGradient id="d" gradientUnits="userSpaceOnUse" x1="109.3" y1="460.6" x2="1102.8" y2="462.5"><stop offset=".1" stop-color="#00b8e9"/><stop offset=".5" stop-color="#2d1385"/></linearGradient><path fill="url(#d)" d="M12 847h142l368-648-69-124h-12z"/>
  <g fill="#FFF" stroke="#000" stroke-miterlimit="10"><path d="M92 1009h882l-74-120H313l220-396 105 188 147 2-252-443z"/><path d="M597 680H470l63-110z"/><path d="M376 848h691L629 76l-72 125 300 519-415 1zM0 848h142l368-648-69-124z"/></g>
</svg>
